<?xml version="1.0" encoding="UTF-8" standalone="no"?>
<!DOCTYPE svg PUBLIC "-//W3C//DTD SVG 1.1//EN" "http://www.w3.org/Graphics/SVG/1.1/DTD/svg11.dtd">
<svg xmlns="http://www.w3.org/2000/svg" version="1.1" viewBox="0.00 0.00 600.00 600.00">
<path fill="#ffffff" d="
  M 600.00 0.00
  L 600.00 600.00
  L 0.00 600.00
  L 0.00 0.00
  L 600.00 0.00
  Z
  M 264.31 175.48
  C 267.51 174.21 268.65 168.81 269.17 165.84
  C 270.14 160.25 267.64 155.80 263.08 152.76
  A 1.62 1.58 19.7 0 1 262.37 151.30
  C 262.59 148.64 263.17 144.74 261.15 142.39
  Q 258.16 138.91 253.87 138.52
  A 0.95 0.95 0.0 0 1 253.04 137.34
  C 256.20 125.57 243.32 124.21 235.13 123.07
  A 1.51 1.51 0.0 0 1 233.83 121.54
  C 234.08 109.74 235.66 98.12 243.79 88.90
  Q 251.80 79.80 260.98 75.57
  Q 266.68 72.95 270.10 78.34
  A 1.77 1.72 29.6 0 1 270.37 79.27
  L 270.37 84.05
  A 0.72 0.67 -63.1 0 0 270.48 84.43
  Q 272.07 86.94 274.96 87.35
  A 2.45 1.89 9.7 0 0 277.60 85.95
  Q 277.89 84.61 277.58 82.47
  C 276.58 75.71 271.43 68.13 263.96 68.36
  C 249.32 68.82 235.02 76.77 225.93 88.15
  Q 214.06 103.02 218.94 121.53
  Q 219.34 123.03 220.44 124.49
  A 1.09 1.06 77.6 0 0 221.03 124.88
  L 228.80 126.89
  A 8.11 8.03 51.6 0 0 230.87 127.14
  Q 231.26 127.12 235.75 126.12
  C 238.97 125.41 246.42 126.52 247.99 130.94
  C 248.81 133.26 245.47 137.30 243.85 139.23
  A 1.68 1.68 0.0 0 0 244.19 141.70
  C 246.58 143.32 251.92 140.70 255.52 143.55
  A 1.98 1.96 -79.6 0 1 256.18 144.52
  Q 257.40 148.38 256.90 153.14
  A 1.18 1.18 0.0 0 0 257.56 154.33
  C 262.37 156.68 266.71 158.07 265.34 164.96
  Q 264.49 169.24 263.14 174.45
  A 0.88 0.87 -3.5 0 0 264.31 175.48
  Z
  M 103.22 103.40
  Q 103.29 98.62 104.46 92.23
  Q 105.09 88.73 107.24 85.19
  A 1.59 1.59 0.0 0 1 108.73 84.43
  C 114.62 84.95 121.57 95.22 123.24 98.83
  Q 129.05 111.36 131.61 125.77
  A 3.14 3.13 57.1 0 1 131.12 128.07
  Q 129.06 131.13 126.79 133.08
  C 123.66 135.78 122.95 140.17 122.26 143.77
  Q 121.49 147.87 118.24 149.50
  C 111.85 152.70 106.02 155.15 105.50 163.19
  Q 105.07 169.98 108.04 174.74
  A 2.59 2.38 -33.0 0 0 111.57 175.33
  Q 112.75 174.54 112.74 172.74
  Q 112.73 168.62 112.47 164.52
  C 112.31 162.11 112.86 160.62 114.49 158.99
  Q 118.49 154.97 123.86 151.79
  A 2.75 2.75 0.0 0 0 124.69 151.06
  C 127.39 147.66 127.12 143.59 128.04 140.50
  A 6.64 6.14 71.6 0 1 128.74 138.95
  Q 130.89 135.56 133.82 131.86
  Q 135.79 129.37 138.90 128.86
  A 0.85 0.84 -22.6 0 0 139.45 127.53
  L 138.38 126.05
  A 7.34 7.25 -71.8 0 1 137.29 123.86
  Q 134.06 113.32 132.66 109.33
  C 129.59 100.53 124.31 93.86 119.04 86.74
  Q 118.46 85.95 118.26 84.99
  A 0.47 0.47 0.0 0 1 118.86 84.44
  C 124.31 86.08 131.45 95.46 134.87 100.64
  Q 140.59 109.31 145.02 117.02
  Q 146.58 119.73 147.47 121.66
  A 3.43 3.39 34.0 0 1 147.78 123.21
  Q 147.65 127.48 144.08 129.45
  A 1.21 1.20 39.9 0 0 144.28 131.64
  L 146.23 132.30
  A 5.36 5.35 38.7 0 0 150.77 131.80
  Q 152.49 130.74 159.12 126.64
  Q 165.23 122.86 171.67 125.03
  Q 176.23 126.57 180.85 128.78
  A 2.21 2.20 40.5 0 0 183.05 128.61
  Q 186.52 126.24 190.08 125.07
  C 192.36 124.33 194.18 125.20 196.34 125.27
  Q 200.66 125.41 205.00 125.76
  Q 205.73 125.82 206.07 125.50
  A 0.64 0.64 0.0 0 0 205.82 124.42
  L 194.13 120.90
  A 2.18 2.13 -41.7 0 0 193.03 120.85
  L 180.32 123.44
  A 0.61 0.58 55.1 0 1 179.87 123.35
  C 174.25 119.74 167.20 116.56 161.08 120.05
  Q 156.71 122.55 153.51 124.53
  A 1.09 1.09 0.0 0 1 151.86 123.81
  Q 151.57 122.29 151.29 121.43
  Q 146.68 107.51 137.27 95.23
  C 130.81 86.80 120.80 78.94 110.07 77.83
  C 105.20 77.33 101.68 79.08 99.62 83.43
  Q 96.66 89.69 95.97 97.44
  A 0.90 0.89 25.3 0 0 96.22 98.13
  L 101.99 103.90
  A 0.72 0.72 0.0 0 0 103.22 103.40
  Z
  M 531.62 222.73
  C 540.32 222.48 538.84 216.31 539.21 210.11
  A 0.70 0.69 88.0 0 1 539.80 209.47
  C 546.47 208.47 547.45 206.39 546.84 200.14
  C 546.49 196.57 545.02 193.79 542.82 187.80
  A 2.61 2.59 49.1 0 1 542.96 185.71
  C 545.88 180.14 551.26 168.32 545.35 163.04
  C 541.00 159.15 533.59 161.82 527.71 163.45
  A 6.87 6.86 45.6 0 1 523.90 163.41
  Q 521.00 162.54 511.27 159.58
  C 505.03 157.68 497.96 160.03 492.86 163.52
  Q 487.39 167.27 486.94 175.36
  Q 486.45 184.02 489.79 193.28
  Q 490.58 195.49 489.29 196.54
  Q 480.61 203.51 476.28 212.92
  A 0.54 0.54 0.0 0 1 475.41 213.08
  Q 471.42 209.27 466.23 208.87
  A 5.07 4.49 -43.7 0 0 465.16 208.91
  Q 459.40 209.80 453.54 212.67
  A 0.69 0.68 62.0 0 1 452.65 212.39
  C 450.10 207.84 447.78 204.55 442.13 204.17
  Q 433.84 203.61 426.50 206.69
  A 0.61 0.61 0.0 0 1 425.66 206.13
  L 425.66 196.58
  A 3.65 3.64 -72.3 0 0 424.13 193.61
  C 418.84 189.86 413.08 187.29 406.46 189.75
  Q 402.90 191.08 398.05 193.34
  A 1.37 1.36 -35.2 0 1 396.53 193.08
  Q 386.85 183.57 373.94 187.84
  A 0.88 0.88 0.0 0 1 372.78 187.10
  C 371.87 179.35 366.55 177.90 359.56 179.43
  Q 349.20 181.70 341.38 188.24
  A 0.80 0.80 0.0 0 0 342.28 189.56
  Q 349.33 185.66 358.15 183.18
  Q 361.19 182.33 364.61 182.66
  C 371.25 183.30 365.77 192.32 363.74 195.48
  Q 362.78 196.98 362.80 198.30
  A 1.36 1.36 0.0 0 0 364.85 199.45
  Q 372.02 195.27 375.64 193.43
  C 384.95 188.69 388.90 193.32 394.70 199.65
  A 1.32 1.32 0.0 0 0 396.58 199.73
  Q 399.14 197.33 400.15 196.43
  C 404.77 192.31 409.88 192.13 415.29 195.05
  Q 423.82 199.67 421.78 211.03
  A 0.55 0.55 0.0 0 0 422.48 211.65
  Q 431.18 209.11 440.24 208.45
  C 444.00 208.18 446.92 209.59 448.60 213.19
  Q 450.24 216.72 450.29 220.09
  A 0.59 0.59 0.0 0 0 451.31 220.48
  Q 455.97 215.43 462.74 214.52
  C 469.18 213.67 472.47 216.87 475.67 221.65
  A 1.13 1.12 40.2 0 0 477.63 221.49
  Q 479.88 216.49 483.85 211.56
  C 486.94 207.72 492.65 205.91 495.13 201.79
  C 496.11 200.16 494.00 192.30 492.74 185.78
  Q 491.86 181.21 492.22 176.76
  C 492.91 168.31 500.77 164.42 508.59 165.41
  Q 513.70 166.06 518.64 167.55
  A 3.77 3.42 -32.6 0 0 519.53 167.70
  Q 525.52 167.92 526.82 167.35
  Q 532.33 164.93 536.33 163.57
  A 2.60 2.55 36.1 0 1 537.28 163.43
  Q 541.27 163.54 541.51 167.06
  C 541.98 174.02 538.01 181.14 536.32 186.31
  Q 535.78 187.97 536.17 189.38
  A 1.80 1.80 0.0 0 0 536.65 190.19
  C 538.74 192.20 542.62 195.54 543.51 198.56
  A 1.62 1.62 0.0 0 1 541.81 200.62
  Q 539.76 200.43 535.64 199.40
  A 2.67 2.42 18.6 0 0 532.63 200.72
  Q 532.32 201.43 532.69 203.09
  Q 532.89 203.98 534.87 209.92
  C 536.01 213.32 533.89 217.40 529.82 216.15
  Q 527.94 215.57 527.11 215.65
  C 522.43 216.10 524.53 220.66 525.41 223.40
  C 526.49 226.75 523.73 229.17 520.93 230.45
  Q 516.56 232.45 513.63 235.56
  Q 513.07 236.16 511.48 240.46
  A 1.30 1.27 40.2 0 0 511.59 241.60
  Q 514.35 246.00 517.68 250.81
  C 520.49 254.86 523.14 261.07 517.49 264.04
  Q 514.18 265.78 513.24 266.13
  A 1.01 1.00 -3.9 0 0 512.61 266.85
  C 511.55 271.72 514.98 274.49 515.46 278.58
  Q 516.12 284.29 516.88 294.78
  Q 517.12 298.08 514.51 298.46
  C 509.28 299.22 506.34 302.25 506.56 307.75
  A 2.07 2.07 0.0 0 0 506.89 308.80
  C 508.26 310.91 509.89 311.98 512.87 312.44
  Q 515.45 312.84 518.53 314.71
  A 2.86 2.85 18.4 0 1 519.89 317.42
  C 519.61 320.29 519.00 322.42 517.18 325.35
  Q 515.44 328.14 514.20 331.55
  A 1.73 1.73 0.0 0 0 515.45 333.83
  L 518.81 334.57
  A 0.94 0.90 -12.6 0 1 519.29 334.86
  Q 521.45 337.27 520.64 339.57
  C 519.28 343.43 512.83 343.23 512.51 347.43
  C 512.29 350.32 513.88 351.09 516.65 351.16
  C 520.42 351.27 525.97 353.73 524.78 358.55
  C 523.41 364.09 516.51 366.73 512.89 370.16
  C 508.66 374.16 514.91 382.28 518.03 387.11
  C 519.03 388.67 519.65 390.74 519.03 392.26
  Q 517.70 395.51 514.35 402.32
  C 511.88 407.34 517.08 413.22 516.51 417.81
  C 516.07 421.31 514.51 424.68 512.92 428.20
  Q 509.59 435.58 511.14 443.52
  Q 512.55 450.70 513.07 457.25
  C 513.46 462.19 511.53 464.81 507.87 467.63
  Q 500.74 473.10 494.22 475.00
  A 2.45 2.45 0.0 0 1 491.22 473.44
  Q 490.52 471.42 490.76 469.70
  C 491.31 465.80 487.44 462.00 484.56 458.53
  A 1.98 1.97 44.6 0 1 484.54 456.04
  C 487.64 452.14 489.87 448.04 489.14 443.04
  C 488.50 438.60 479.56 437.30 476.05 436.68
  A 1.73 1.73 0.0 0 1 474.79 434.22
  L 480.72 422.15
  A 1.67 1.66 -71.2 0 0 479.56 419.79
  C 476.22 419.11 469.99 418.56 467.98 415.33
  A 2.63 2.63 0.0 0 1 468.32 412.10
  L 474.39 405.83
  A 2.92 2.91 -39.9 0 0 474.72 402.19
  C 473.53 400.30 470.97 399.14 468.01 397.31
  Q 467.22 396.83 465.88 394.45
  A 2.14 2.12 -50.5 0 1 465.72 392.69
  L 470.31 379.27
  A 3.02 3.02 0.0 0 0 470.23 377.12
  Q 469.07 374.42 468.02 373.29
  C 464.90 369.91 461.10 364.63 465.99 361.00
  Q 468.95 358.80 471.36 355.81
  C 476.34 349.65 471.24 344.08 467.07 339.43
  A 1.63 1.63 0.0 0 1 467.02 337.31
  C 471.12 332.29 474.62 323.69 471.61 317.44
  Q 468.01 309.98 460.61 308.14
  A 1.94 1.93 -83.0 0 0 458.21 310.02
  L 458.21 310.38
  A 3.05 3.04 -87.2 0 0 460.95 313.41
  Q 466.58 313.98 468.26 319.27
  Q 469.00 321.57 468.18 323.25
  Q 462.36 335.15 461.86 336.25
  A 1.68 1.67 -2.6 0 1 461.20 336.97
  C 458.96 338.26 456.55 338.14 454.99 338.58
  A 2.41 2.39 -76.9 0 0 453.84 339.30
  C 451.35 342.06 449.42 345.89 445.58 346.29
  Q 442.07 346.67 439.45 345.98
  A 0.91 0.91 0.0 0 0 438.35 346.56
  C 437.01 350.41 436.33 353.56 433.25 355.46
  A 1.28 1.27 -47.7 0 1 432.02 355.52
  L 424.73 351.95
  A 2.08 2.07 -50.9 0 0 422.53 352.18
  Q 418.99 354.96 415.75 359.05
  C 414.45 360.70 412.62 362.11 410.85 362.60
  Q 401.52 365.20 389.97 365.49
  A 5.24 5.20 -32.5 0 1 387.49 364.95
  C 382.68 362.60 379.82 358.29 375.51 355.50
  A 1.38 1.38 0.0 0 0 373.51 357.25
  C 375.56 361.57 379.13 366.86 376.44 369.41
  C 374.01 371.71 369.71 373.87 368.90 377.97
  A 2.39 2.39 0.0 0 0 369.62 380.17
  C 372.19 382.54 378.83 385.64 373.40 389.70
  Q 370.74 391.69 365.03 394.71
  C 358.76 398.01 364.80 404.45 368.09 408.19
  Q 370.44 410.86 369.73 414.48
  Q 367.46 425.95 367.86 437.59
  A 2.52 2.51 6.0 0 0 369.76 439.93
  Q 371.94 440.48 375.00 440.12
  Q 379.29 439.61 382.54 439.72
  A 2.40 2.39 -7.0 0 1 384.76 441.45
  C 385.90 445.43 384.82 451.29 384.71 455.50
  Q 384.62 458.94 387.55 459.42
  C 393.08 460.32 399.36 461.17 398.99 467.81
  Q 398.72 472.78 397.27 475.17
  Q 395.15 478.66 393.97 482.09
  A 0.95 0.94 -65.3 0 0 394.38 483.21
  Q 397.96 485.40 399.33 489.11
  C 401.57 495.17 402.61 501.60 395.11 503.93
  Q 392.35 504.79 392.01 505.05
  C 388.32 507.88 390.60 512.97 392.06 516.39
  C 394.19 521.38 394.28 525.87 391.51 530.29
  Q 389.37 533.70 387.13 534.21
  Q 382.05 535.36 376.75 534.19
  A 0.94 0.94 0.0 0 0 375.60 535.03
  C 375.29 538.58 379.89 539.89 382.97 540.84
  C 386.89 542.05 389.72 539.22 392.83 536.20
  C 397.26 531.89 401.07 526.95 399.43 520.23
  Q 398.47 516.28 396.93 512.79
  A 1.18 1.18 0.0 0 1 397.53 511.24
  Q 403.85 508.40 405.22 501.23
  Q 405.81 498.14 404.83 495.73
  Q 401.95 488.54 400.18 485.11
  C 398.23 481.32 401.79 477.87 403.11 475.22
  Q 404.37 472.69 404.65 468.00
  C 405.07 460.84 397.32 457.36 391.44 456.19
  A 2.15 2.15 0.0 0 1 389.75 453.66
  Q 391.04 447.16 390.60 441.05
  A 2.86 2.82 -63.0 0 0 390.20 439.79
  C 387.75 435.76 382.95 436.01 378.64 436.15
  C 374.04 436.29 371.11 435.19 372.10 429.88
  Q 372.86 425.84 374.86 417.19
  C 376.42 410.49 372.75 408.39 368.95 403.80
  C 366.85 401.25 367.11 396.52 371.35 396.39
  Q 375.84 396.24 378.46 394.94
  Q 379.94 394.20 380.17 391.96
  C 380.69 386.85 378.02 383.79 374.87 380.29
  A 1.91 1.91 0.0 0 1 375.55 377.25
  L 383.20 374.04
  A 2.13 2.10 -80.0 0 0 383.93 373.52
  L 386.32 370.80
  A 1.33 1.32 21.8 0 1 387.38 370.35
  C 388.28 370.40 389.60 370.86 390.16 370.92
  Q 396.44 371.57 403.06 370.18
  A 0.66 0.65 87.1 0 1 403.84 370.89
  Q 403.30 376.04 403.35 380.72
  C 403.44 389.57 409.79 394.60 416.19 399.48
  C 419.59 402.06 421.48 405.18 421.62 409.32
  Q 421.84 415.97 421.64 422.63
  A 1.07 1.07 0.0 0 0 423.39 423.49
  C 426.07 421.26 426.85 413.06 427.22 410.18
  Q 428.15 403.01 423.27 398.17
  Q 420.56 395.48 415.13 390.92
  C 408.75 385.56 408.27 376.44 410.11 368.59
  A 1.42 1.40 -10.1 0 1 410.72 367.73
  Q 412.22 366.79 413.50 366.69
  C 418.88 366.26 419.58 363.63 422.42 359.84
  A 1.81 1.80 35.2 0 1 424.86 359.42
  C 428.08 361.57 433.54 365.26 436.95 361.82
  C 438.71 360.04 440.87 356.43 442.21 353.72
  A 2.03 2.02 -76.2 0 1 444.05 352.60
  Q 447.63 352.67 450.21 351.57
  A 2.75 2.67 8.5 0 0 451.17 350.88
  L 454.49 347.18
  A 0.45 0.45 0.0 0 1 455.27 347.41
  Q 455.93 351.83 454.54 355.80
  Q 452.66 361.18 449.79 370.26
  Q 448.44 374.52 448.86 378.69
  Q 449.72 387.19 451.33 398.61
  Q 452.40 406.18 451.43 418.99
  C 450.89 426.13 448.49 433.19 441.65 436.22
  A 4.62 4.53 -60.5 0 1 440.51 436.55
  Q 436.72 437.07 433.76 437.02
  C 429.69 436.96 429.29 433.18 427.95 429.46
  A 1.63 1.53 -14.0 0 0 426.20 428.48
  Q 424.93 428.67 424.79 429.47
  C 424.18 432.94 425.02 438.85 428.82 440.46
  C 435.25 443.19 443.48 442.21 448.81 437.58
  C 453.27 433.71 455.21 423.20 455.69 417.50
  Q 456.49 407.94 456.65 403.82
  A 11.44 10.14 46.3 0 0 456.59 402.21
  C 455.81 395.84 454.02 389.50 452.67 383.22
  C 452.21 381.13 452.20 378.19 452.84 376.34
  Q 453.80 373.62 457.56 365.14
  A 0.48 0.48 0.0 0 1 458.43 365.13
  Q 460.71 370.10 464.95 373.48
  A 2.84 2.84 0.0 0 1 465.81 376.76
  Q 464.90 378.98 462.62 383.08
  C 459.89 388.01 459.01 394.23 464.06 397.87
  Q 467.31 400.22 468.18 400.73
  A 0.88 0.88 0.0 0 1 468.29 402.17
  Q 461.36 407.67 462.25 416.54
  C 462.70 420.96 468.30 423.94 472.26 424.39
  A 0.88 0.88 0.0 0 1 472.91 425.72
  Q 469.34 431.46 470.04 437.95
  A 1.62 1.59 22.4 0 0 470.41 438.82
  Q 471.58 440.18 473.40 440.40
  Q 478.14 440.98 480.84 441.49
  C 483.70 442.04 485.63 443.01 484.30 446.23
  A 2.03 1.95 -10.1 0 1 483.76 446.97
  C 481.24 449.13 479.51 450.77 479.45 454.36
  A 2.93 2.76 37.3 0 0 479.62 455.38
  Q 481.19 459.64 483.49 462.38
  C 485.70 464.99 487.13 468.94 487.36 471.92
  Q 487.55 474.37 489.08 476.01
  Q 493.16 480.39 498.71 477.44
  C 505.34 473.93 513.19 469.72 518.41 464.16
  A 2.37 2.37 0.0 0 0 519.01 462.07
  Q 517.95 456.73 515.07 445.71
  C 514.40 443.15 514.45 441.26 515.35 438.88
  Q 517.16 434.14 519.58 429.07
  C 521.33 425.39 521.69 423.14 521.31 419.49
  Q 520.99 416.40 519.69 409.17
  A 6.51 6.48 54.5 0 1 520.40 404.87
  Q 522.90 400.38 523.76 398.34
  Q 525.25 394.83 524.00 389.52
  A 3.33 3.31 -73.9 0 0 523.13 387.93
  Q 522.23 386.99 519.78 383.35
  C 513.67 374.26 523.26 371.25 526.49 365.31
  Q 530.36 358.20 524.93 351.26
  A 2.77 2.59 87.5 0 0 524.43 350.77
  L 520.89 347.99
  A 1.16 1.15 41.7 0 1 520.79 346.26
  Q 523.28 343.80 524.94 341.96
  C 528.33 338.20 524.91 334.48 521.70 332.64
  A 1.40 1.39 25.6 0 1 521.09 330.91
  C 523.17 325.71 525.14 321.06 524.57 314.99
  A 1.87 1.86 -69.6 0 0 524.06 313.87
  C 521.04 310.72 517.10 310.57 514.37 309.14
  A 1.36 1.36 0.0 0 1 514.00 307.01
  L 519.40 301.20
  A 3.04 3.03 -23.3 0 0 520.20 299.20
  Q 520.41 286.24 518.10 272.92
  A 0.54 0.54 0.0 0 1 518.60 272.28
  C 526.01 271.86 526.88 261.83 526.44 256.50
  C 526.05 251.73 521.04 245.24 517.87 241.50
  A 1.79 1.78 58.9 0 1 518.56 238.69
  Q 520.54 237.90 526.34 235.87
  Q 528.67 235.05 529.56 233.55
  A 2.17 2.12 64.9 0 0 529.84 232.75
  L 531.07 223.23
  A 0.58 0.57 2.3 0 1 531.62 222.73
  Z
  M 182.02 189.59
  C 182.63 187.72 181.94 184.68 182.29 182.48
  Q 182.89 178.72 182.12 173.45
  A 1.13 1.13 0.0 0 0 179.96 173.18
  Q 177.13 180.00 178.57 187.61
  Q 178.93 189.54 180.30 190.27
  A 1.21 1.20 -66.4 0 0 182.02 189.59
  Z
  M 263.27 183.78
  Q 278.90 180.87 287.26 179.78
  C 290.73 179.33 296.12 178.65 299.92 179.15
  C 303.80 179.65 307.58 179.49 312.26 180.22
  C 316.44 180.87 320.54 181.38 323.92 183.68
  A 0.94 0.94 0.0 0 1 323.67 185.36
  Q 318.14 187.06 312.12 187.65
  Q 298.96 188.94 289.67 189.45
  C 284.38 189.74 279.45 190.54 274.02 190.96
  Q 273.56 191.00 273.29 191.46
  A 0.81 0.80 -66.1 0 0 273.74 192.64
  C 277.94 193.92 281.94 193.28 286.02 194.04
  A 11.21 11.16 -41.3 0 0 288.60 194.20
  C 291.99 194.00 294.07 193.63 298.42 193.58
  Q 312.72 193.42 326.29 189.52
  Q 329.91 188.48 332.50 186.26
  A 1.95 1.94 -45.3 0 0 332.49 183.30
  Q 330.97 182.02 328.16 180.83
  Q 321.06 177.83 310.67 175.60
  Q 302.75 173.90 296.17 174.66
  Q 286.09 175.81 275.35 178.14
  Q 269.11 179.49 264.38 181.57
  Q 262.90 182.23 262.71 183.21
  A 0.48 0.48 0.0 0 0 263.27 183.78
  Z
  M 193.84 193.18
  Q 194.76 189.80 195.59 183.67
  C 195.80 182.08 195.33 180.07 194.88 179.16
  A 1.58 1.58 0.0 0 0 192.00 179.26
  Q 189.13 186.32 192.15 193.30
  A 0.90 0.90 0.0 0 0 193.84 193.18
  Z
  M 83.15 208.40
  Q 76.93 208.07 72.85 208.35
  Q 67.18 208.74 66.17 208.67
  C 62.47 208.42 58.20 209.34 54.03 208.94
  C 50.04 208.55 43.39 208.28 45.62 202.32
  C 47.56 197.18 53.29 192.71 59.17 190.57
  C 71.27 186.18 82.25 182.73 94.54 185.52
  C 98.65 186.46 101.71 189.70 106.09 189.95
  A 1.02 1.02 0.0 0 0 107.02 188.40
  C 104.13 183.66 94.18 181.45 88.96 181.01
  Q 82.67 180.49 73.71 182.84
  Q 60.96 186.18 50.06 192.03
  Q 44.61 194.95 41.92 199.36
  C 34.37 211.69 56.12 213.22 62.14 213.30
  A 8.32 8.10 -48.9 0 0 63.85 213.16
  C 69.40 212.16 73.28 211.25 77.09 211.60
  C 79.57 211.82 81.72 210.80 83.47 209.44
  A 0.58 0.58 0.0 0 0 83.15 208.40
  Z
  M 208.24 201.05
  L 209.32 195.35
  A 0.62 0.62 0.0 0 0 208.83 194.62
  L 208.59 194.58
  A 2.63 2.51 -79.2 0 0 205.63 196.69
  L 205.29 198.44
  A 2.63 2.51 -79.2 0 0 207.27 201.49
  L 207.51 201.54
  A 0.62 0.62 0.0 0 0 208.24 201.05
  Z
  M 149.37 231.78
  C 157.29 230.45 159.57 223.21 159.79 215.96
  Q 159.96 210.59 157.24 206.76
  C 154.63 203.09 148.96 199.35 144.07 200.17
  C 139.17 200.99 135.03 206.37 133.76 210.70
  Q 132.44 215.20 134.35 220.23
  C 136.93 227.01 141.44 233.11 149.37 231.78
  Z
  M 232.00 205.91
  C 227.04 200.93 219.81 198.30 213.59 202.61
  C 206.29 207.67 204.95 217.94 208.65 225.65
  Q 213.37 235.47 223.23 233.19
  C 234.27 230.64 240.57 214.51 232.00 205.91
  Z
  M 274.28 211.12
  A 0.34 0.34 0.0 0 0 273.74 211.00
  L 266.10 217.86
  A 2.56 2.46 -75.5 0 1 265.29 218.36
  L 259.27 220.64
  A 4.57 4.44 14.4 0 0 258.08 221.32
  Q 253.93 224.37 251.85 231.09
  Q 250.03 236.98 248.57 242.46
  C 245.21 255.13 237.93 265.52 228.76 274.46
  C 225.76 277.38 221.13 280.40 217.84 283.68
  A 1.16 1.16 0.0 0 0 218.31 285.61
  L 218.41 285.64
  A 3.57 3.56 -55.6 0 0 221.69 285.02
  Q 231.90 276.92 240.84 266.61
  C 246.28 260.35 249.09 253.21 251.39 245.69
  Q 252.52 241.99 254.89 234.64
  Q 256.31 230.24 257.73 229.22
  C 264.32 224.49 267.61 219.79 274.37 211.47
  A 0.11 0.10 51.7 0 0 274.38 211.36
  L 274.28 211.12
  Z
  M 372.42 531.57
  L 368.05 529.05
  A 3.43 3.37 -85.6 0 1 366.56 527.28
  C 365.76 525.15 364.83 520.30 362.07 518.47
  C 360.14 517.19 356.57 516.84 354.11 514.59
  A 1.43 1.43 0.0 0 1 353.85 512.79
  C 355.98 509.30 360.60 501.23 354.71 499.24
  Q 353.13 498.70 345.83 497.25
  Q 344.65 497.01 342.62 495.39
  C 340.72 493.87 341.73 491.63 342.87 490.10
  C 344.90 487.39 346.67 485.78 347.44 482.90
  Q 348.92 477.42 347.58 471.94
  A 2.05 2.04 -0.2 0 0 346.07 470.45
  Q 341.00 469.25 335.03 468.61
  C 333.49 468.44 331.43 467.77 330.37 467.20
  A 2.41 2.41 0.0 0 1 329.32 464.16
  Q 330.89 460.45 332.12 456.71
  C 332.71 454.92 332.56 452.85 330.82 452.22
  Q 324.90 450.06 324.11 449.74
  A 1.78 1.78 0.0 0 1 323.39 446.97
  C 325.17 444.76 330.35 441.61 331.41 438.32
  A 3.99 3.99 0.0 0 0 330.58 434.42
  L 323.37 426.39
  A 1.05 1.05 0.0 0 1 323.10 425.57
  Q 323.28 423.96 324.39 422.86
  Q 327.74 419.51 330.97 416.18
  Q 333.81 413.24 331.34 410.16
  C 329.46 407.81 325.93 403.96 326.62 401.78
  Q 328.27 396.52 331.03 392.74
  A 0.59 0.58 36.9 0 0 330.91 391.93
  L 325.88 388.12
  A 1.18 1.18 0.0 0 1 326.19 386.07
  Q 332.17 383.86 335.08 377.98
  A 3.49 3.43 87.1 0 1 336.28 376.63
  Q 342.44 372.65 343.69 365.26
  C 344.11 362.78 346.72 362.44 348.20 360.96
  Q 353.75 355.38 353.38 347.46
  Q 353.20 343.61 351.06 341.91
  Q 348.36 339.74 345.26 339.23
  A 0.75 0.75 0.0 0 0 344.61 340.51
  Q 348.08 343.93 347.65 349.73
  A 2.87 2.86 -25.6 0 1 347.16 351.12
  C 344.64 354.78 342.24 356.07 338.43 357.80
  A 1.28 1.28 0.0 0 0 337.69 359.02
  Q 337.84 362.56 337.77 367.79
  C 337.72 371.15 335.72 372.76 332.63 371.88
  A 1.20 1.20 0.0 0 0 331.14 372.73
  Q 331.12 372.83 330.65 375.81
  C 330.17 378.98 326.91 380.18 324.26 380.41
  A 1.31 1.31 0.0 0 0 323.21 381.14
  L 321.90 383.80
  A 1.04 1.04 0.0 0 1 321.38 384.29
  L 316.70 386.25
  A 1.98 1.96 37.9 0 1 315.62 386.38
  C 312.30 385.81 310.01 382.75 308.42 379.91
  C 307.44 378.17 305.90 376.96 304.35 378.38
  C 302.18 380.37 298.12 384.06 295.64 384.24
  A 1.30 1.29 -9.7 0 1 294.29 383.29
  L 292.61 377.05
  A 2.03 2.02 -16.3 0 0 290.04 375.65
  Q 288.51 376.14 288.06 376.55
  Q 284.42 379.86 281.80 382.30
  A 1.13 1.09 -71.0 0 1 281.27 382.57
  L 278.01 383.03
  A 2.85 2.85 0.0 0 1 274.77 380.49
  L 274.01 372.69
  A 1.72 1.72 0.0 0 0 271.68 371.25
  C 268.95 372.31 265.82 375.11 263.66 377.35
  A 1.23 1.10 3.2 0 1 263.46 377.51
  L 259.13 380.24
  A 2.01 2.00 -36.3 0 1 256.54 379.85
  C 253.67 376.50 252.03 373.49 247.74 374.80
  Q 242.51 376.39 237.85 377.54
  Q 234.05 378.48 231.25 376.50
  A 3.53 2.69 -61.5 0 1 230.63 372.51
  Q 232.33 368.84 232.74 365.82
  A 1.49 1.48 -86.3 0 0 231.27 364.14
  Q 228.98 364.13 227.49 364.75
  C 222.24 366.94 207.80 373.41 211.36 359.86
  C 211.86 357.99 211.96 355.85 211.75 354.20
  A 1.13 1.12 -88.2 0 0 210.87 353.25
  Q 207.04 352.43 201.50 352.08
  Q 200.09 351.99 196.18 350.24
  A 1.11 1.10 -86.2 0 1 195.55 349.51
  Q 195.07 347.70 195.71 345.72
  Q 198.07 338.51 199.08 333.93
  A 1.50 1.47 -53.7 0 0 198.94 332.93
  Q 198.23 331.57 196.41 331.80
  Q 189.59 332.65 186.71 332.56
  A 1.93 1.92 -87.3 0 1 184.85 330.51
  Q 184.92 329.37 185.66 327.93
  Q 189.66 320.14 195.08 314.76
  A 7.95 7.81 5.7 0 1 196.30 313.78
  Q 205.40 307.86 212.86 301.24
  A 1.29 1.28 -23.8 0 0 213.29 300.14
  L 213.25 299.72
  A 0.66 0.66 0.0 0 0 212.25 299.22
  Q 203.44 304.69 198.51 307.76
  C 191.48 312.13 184.56 311.20 176.82 310.63
  C 166.24 309.85 156.96 302.86 151.71 293.80
  C 145.01 282.26 141.38 271.69 136.10 257.21
  C 131.60 244.90 121.61 234.34 110.99 226.43
  A 1.62 1.61 -39.7 0 0 109.31 226.28
  L 109.23 226.31
  A 0.66 0.65 52.0 0 0 109.10 227.40
  Q 116.50 233.64 122.85 240.75
  C 130.49 249.32 132.86 260.35 136.28 271.88
  Q 139.18 281.63 141.07 285.56
  C 146.28 296.40 154.97 308.84 166.82 312.44
  Q 175.29 315.01 184.77 315.34
  A 0.58 0.57 13.2 0 1 185.28 316.15
  Q 181.90 323.64 179.84 332.06
  C 178.87 336.01 187.54 337.80 190.05 337.99
  A 0.88 0.87 7.5 0 1 190.84 339.01
  C 190.30 342.09 190.41 346.31 188.39 348.88
  C 184.27 354.15 179.69 361.06 180.98 367.54
  Q 181.78 371.54 181.74 371.85
  A 0.95 0.94 -8.8 0 1 181.18 372.61
  Q 176.86 374.53 175.39 379.42
  C 172.57 388.88 173.48 399.06 180.38 406.23
  A 1.15 1.15 0.0 0 1 180.37 407.84
  Q 172.14 416.14 169.16 427.72
  Q 166.47 438.15 166.64 443.81
  A 1.35 1.33 12.5 0 0 167.40 444.98
  L 168.38 445.47
  A 0.73 0.72 -75.8 0 0 169.42 444.85
  Q 170.10 431.30 177.22 418.96
  Q 181.56 411.43 188.71 405.25
  A 0.59 0.59 0.0 0 0 188.44 404.22
  Q 186.37 403.80 184.53 402.21
  C 178.62 397.10 177.34 388.48 180.70 381.50
  C 181.90 379.01 185.23 376.11 186.89 374.30
  A 2.00 1.99 -43.9 0 0 186.95 371.66
  C 182.36 366.24 184.87 360.09 189.79 355.81
  A 1.97 1.96 39.4 0 1 192.05 355.59
  Q 196.81 358.32 202.02 358.44
  C 203.16 358.46 203.74 357.75 204.65 357.71
  A 0.69 0.69 0.0 0 1 205.37 358.30
  Q 206.23 364.68 208.34 371.21
  Q 209.09 373.53 211.74 373.65
  Q 217.22 373.89 221.97 372.86
  A 2.00 1.99 74.9 0 1 224.29 374.20
  C 225.59 378.24 226.50 382.10 229.88 384.05
  A 1.58 1.57 55.6 0 0 230.93 384.25
  Q 239.17 382.92 245.84 379.13
  Q 247.78 378.03 249.81 378.22
  A 1.38 1.37 -58.8 0 1 250.42 380.74
  C 245.81 383.74 240.53 386.31 239.01 391.68
  A 3.43 3.37 -44.5 0 0 238.98 393.40
  Q 239.92 397.29 241.06 403.46
  Q 241.69 406.86 238.43 409.19
  Q 231.37 414.22 229.47 415.19
  A 1.83 1.79 86.4 0 0 228.58 416.22
  Q 227.57 419.09 227.87 422.49
  C 228.48 429.41 224.69 432.82 219.95 436.99
  C 216.49 440.04 211.10 441.72 205.17 444.42
  C 198.94 447.24 199.94 455.63 199.71 461.16
  A 1.39 1.38 -19.2 0 1 199.21 462.18
  Q 194.35 466.19 191.61 467.33
  C 186.32 469.53 183.53 475.23 180.77 480.03
  A 6.32 6.30 0.1 0 1 178.36 482.42
  C 175.54 483.98 170.72 487.80 171.09 491.29
  C 171.60 496.23 172.62 500.64 169.65 503.98
  Q 165.69 508.42 159.67 512.26
  A 1.28 1.27 67.5 0 0 159.11 513.62
  C 160.46 519.59 157.81 526.77 154.34 531.52
  A 0.48 0.47 22.0 0 0 154.66 532.27
  Q 155.00 532.31 155.17 532.20
  Q 163.88 526.72 163.34 516.37
  A 1.06 1.05 -13.0 0 1 163.99 515.34
  C 170.66 512.58 179.41 506.76 175.75 498.12
  C 175.22 496.88 172.38 491.61 173.95 489.91
  Q 176.59 487.03 180.59 485.90
  A 3.02 3.02 0.0 0 0 182.70 483.78
  C 183.98 479.07 185.65 474.95 189.18 471.66
  A 3.42 3.39 13.2 0 1 190.35 470.94
  Q 192.58 470.10 199.18 468.39
  Q 201.95 467.66 202.56 464.27
  Q 203.55 458.77 203.50 454.04
  Q 203.48 452.57 205.02 450.96
  A 1.31 1.31 0.0 0 1 205.91 450.54
  L 211.17 450.16
  A 5.22 5.06 -54.6 0 0 212.31 449.95
  C 217.30 448.40 223.01 442.51 225.88 438.58
  C 229.04 434.25 229.94 428.86 230.87 422.87
  Q 231.55 418.48 235.29 417.26
  Q 241.92 415.09 242.94 414.16
  C 245.56 411.76 245.19 405.20 244.61 402.25
  Q 243.83 398.34 244.17 396.50
  Q 245.44 389.63 250.43 385.16
  A 1.85 1.83 24.0 0 1 251.65 384.70
  L 257.36 384.70
  A 4.08 3.92 -50.9 0 0 258.33 384.58
  Q 263.34 383.37 267.33 380.88
  A 0.95 0.95 0.0 0 1 268.63 381.18
  C 274.03 389.76 278.58 390.52 286.61 384.52
  A 1.60 1.59 43.9 0 1 288.48 384.49
  L 292.10 387.03
  A 3.80 3.79 52.8 0 0 295.54 387.50
  Q 297.75 386.72 301.94 384.97
  Q 304.55 383.87 306.21 385.13
  Q 309.61 387.71 311.85 388.91
  A 4.46 4.41 63.7 0 0 313.07 389.33
  C 315.05 389.71 317.08 388.82 319.02 389.52
  Q 320.69 390.12 321.93 390.92
  A 1.83 1.82 -65.8 0 1 322.70 392.97
  C 321.74 396.37 320.40 399.01 321.22 403.58
  A 0.55 0.51 -69.2 0 0 321.30 403.78
  L 325.65 411.52
  A 1.27 1.27 0.0 0 1 325.28 413.17
  C 320.71 416.46 316.69 420.22 319.26 426.19
  C 320.47 428.99 323.88 431.74 325.73 434.29
  A 1.75 1.74 51.4 0 1 325.48 436.61
  C 320.81 440.78 317.24 443.26 319.03 450.36
  A 1.72 1.71 7.8 0 0 319.84 451.42
  L 325.20 454.52
  A 1.47 1.47 0.0 0 1 325.60 456.74
  Q 322.31 460.73 322.71 465.64
  C 322.84 467.18 322.39 468.36 323.74 469.77
  Q 325.83 471.98 328.77 472.12
  Q 329.31 472.15 338.50 472.15
  C 342.14 472.16 346.04 474.64 342.91 478.72
  C 340.87 481.38 337.40 485.60 337.10 489.34
  Q 336.59 495.72 343.13 498.64
  Q 345.71 499.79 350.61 500.86
  A 1.36 1.36 0.0 0 1 351.56 502.73
  L 348.27 510.30
  A 1.51 1.50 -41.9 0 0 348.21 511.36
  Q 350.55 519.13 357.24 521.17
  A 3.24 3.23 87.0 0 1 359.30 523.03
  L 362.06 529.59
  A 2.56 2.55 82.3 0 0 364.08 531.13
  L 372.21 532.18
  A 0.33 0.33 0.0 0 0 372.42 531.57
  Z
  M 162.79 271.25
  A 7.38 7.38 0.0 0 0 166.08 276.01
  L 172.05 279.82
  A 1.41 1.39 4.7 0 1 172.58 280.44
  L 175.57 287.56
  A 2.68 2.67 41.1 0 1 175.69 289.30
  L 173.48 297.78
  A 2.04 2.04 0.0 0 0 175.86 300.29
  L 176.78 300.10
  A 4.03 4.03 0.0 0 0 179.99 296.51
  Q 180.62 289.32 178.96 282.25
  Q 177.87 277.62 182.41 276.42
  Q 185.31 275.65 188.63 274.48
  A 2.28 2.28 0.0 0 0 190.16 272.22
  L 190.16 272.08
  A 1.58 1.58 0.0 0 0 188.26 270.57
  L 176.80 272.90
  A 1.03 0.96 -47.0 0 1 176.52 272.92
  Q 173.64 272.62 172.44 271.58
  Q 170.80 270.16 165.38 266.60
  A 2.03 2.03 0.0 0 0 162.28 268.70
  L 162.79 271.25
  Z
  M 137.78 534.92
  A 0.36 0.36 0.0 0 0 138.22 534.44
  C 136.99 531.55 134.06 528.19 134.14 523.71
  C 134.18 521.03 137.23 517.25 139.11 515.17
  A 1.88 1.88 0.0 0 0 138.94 512.48
  Q 135.29 509.37 133.10 505.24
  A 2.90 2.89 -40.8 0 1 133.33 502.14
  Q 135.75 498.88 139.88 496.65
  A 1.27 1.26 -19.5 0 0 140.53 495.29
  Q 139.32 489.25 143.07 484.54
  Q 146.09 480.75 149.39 478.49
  A 0.93 0.93 0.0 0 0 149.17 476.85
  C 141.46 474.16 138.75 468.19 141.45 460.54
  C 144.32 452.38 151.58 449.83 159.88 448.97
  A 1.31 1.30 87.1 0 0 161.05 447.67
  L 161.05 447.19
  A 1.68 1.68 0.0 0 0 159.31 445.51
  C 144.62 446.03 134.34 452.72 135.98 469.24
  Q 136.51 474.57 140.87 478.70
  A 0.90 0.90 0.0 0 1 140.83 480.05
  Q 138.55 481.94 136.61 485.17
  A 2.67 2.61 64.1 0 0 136.24 486.28
  L 135.95 488.99
  A 1.19 1.15 72.4 0 1 135.59 489.71
  Q 131.43 493.58 128.54 498.29
  C 126.15 502.19 129.97 509.55 132.15 512.88
  A 1.62 1.61 40.7 0 1 132.27 514.42
  Q 127.38 525.15 135.23 532.84
  C 135.96 533.56 136.59 534.57 137.78 534.92
  Z"
/>
<path fill="#110f0f" d="
  M 264.31 175.48
  A 0.88 0.87 -3.5 0 1 263.14 174.45
  Q 264.49 169.24 265.34 164.96
  C 266.71 158.07 262.37 156.68 257.56 154.33
  A 1.18 1.18 0.0 0 1 256.90 153.14
  Q 257.40 148.38 256.18 144.52
  A 1.98 1.96 -79.6 0 0 255.52 143.55
  C 251.92 140.70 246.58 143.32 244.19 141.70
  A 1.68 1.68 0.0 0 1 243.85 139.23
  C 245.47 137.30 248.81 133.26 247.99 130.94
  C 246.42 126.52 238.97 125.41 235.75 126.12
  Q 231.26 127.12 230.87 127.14
  A 8.11 8.03 51.6 0 1 228.80 126.89
  L 221.03 124.88
  A 1.09 1.06 77.6 0 1 220.44 124.49
  Q 219.34 123.03 218.94 121.53
  Q 214.06 103.02 225.93 88.15
  C 235.02 76.77 249.32 68.82 263.96 68.36
  C 271.43 68.13 276.58 75.71 277.58 82.47
  Q 277.89 84.61 277.60 85.95
  A 2.45 1.89 9.7 0 1 274.96 87.35
  Q 272.07 86.94 270.48 84.43
  A 0.72 0.67 -63.1 0 1 270.37 84.05
  L 270.37 79.27
  A 1.77 1.72 29.6 0 0 270.10 78.34
  Q 266.68 72.95 260.98 75.57
  Q 251.80 79.80 243.79 88.90
  C 235.66 98.12 234.08 109.74 233.83 121.54
  A 1.51 1.51 0.0 0 0 235.13 123.07
  C 243.32 124.21 256.20 125.57 253.04 137.34
  A 0.95 0.95 0.0 0 0 253.87 138.52
  Q 258.16 138.91 261.15 142.39
  C 263.17 144.74 262.59 148.64 262.37 151.30
  A 1.62 1.58 19.7 0 0 263.08 152.76
  C 267.64 155.80 270.14 160.25 269.17 165.84
  C 268.65 168.81 267.51 174.21 264.31 175.48
  Z"
/>
<path fill="#110f0f" d="
  M 103.22 103.40
  A 0.72 0.72 0.0 0 1 101.99 103.90
  L 96.22 98.13
  A 0.90 0.89 25.3 0 1 95.97 97.44
  Q 96.66 89.69 99.62 83.43
  C 101.68 79.08 105.20 77.33 110.07 77.83
  C 120.80 78.94 130.81 86.80 137.27 95.23
  Q 146.68 107.51 151.29 121.43
  Q 151.57 122.29 151.86 123.81
  A 1.09 1.09 0.0 0 0 153.51 124.53
  Q 156.71 122.55 161.08 120.05
  C 167.20 116.56 174.25 119.74 179.87 123.35
  A 0.61 0.58 55.1 0 0 180.32 123.44
  L 193.03 120.85
  A 2.18 2.13 -41.7 0 1 194.13 120.90
  L 205.82 124.42
  A 0.64 0.64 0.0 0 1 206.07 125.50
  Q 205.73 125.82 205.00 125.76
  Q 200.66 125.41 196.34 125.27
  C 194.18 125.20 192.36 124.33 190.08 125.07
  Q 186.52 126.24 183.05 128.61
  A 2.21 2.20 40.5 0 1 180.85 128.78
  Q 176.23 126.57 171.67 125.03
  Q 165.23 122.86 159.12 126.64
  Q 152.49 130.74 150.77 131.80
  A 5.36 5.35 38.7 0 1 146.23 132.30
  L 144.28 131.64
  A 1.21 1.20 39.9 0 1 144.08 129.45
  Q 147.65 127.48 147.78 123.21
  A 3.43 3.39 34.0 0 0 147.47 121.66
  Q 146.58 119.73 145.02 117.02
  Q 140.59 109.31 134.87 100.64
  C 131.45 95.46 124.31 86.08 118.86 84.44
  A 0.47 0.47 0.0 0 0 118.26 84.99
  Q 118.46 85.95 119.04 86.74
  C 124.31 93.86 129.59 100.53 132.66 109.33
  Q 134.06 113.32 137.29 123.86
  A 7.34 7.25 -71.8 0 0 138.38 126.05
  L 139.45 127.53
  A 0.85 0.84 -22.6 0 1 138.90 128.86
  Q 135.79 129.37 133.82 131.86
  Q 130.89 135.56 128.74 138.95
  A 6.64 6.14 71.6 0 0 128.04 140.50
  C 127.12 143.59 127.39 147.66 124.69 151.06
  A 2.75 2.75 0.0 0 1 123.86 151.79
  Q 118.49 154.97 114.49 158.99
  C 112.86 160.62 112.31 162.11 112.47 164.52
  Q 112.73 168.62 112.74 172.74
  Q 112.75 174.54 111.57 175.33
  A 2.59 2.38 -33.0 0 1 108.04 174.74
  Q 105.07 169.98 105.50 163.19
  C 106.02 155.15 111.85 152.70 118.24 149.50
  Q 121.49 147.87 122.26 143.77
  C 122.95 140.17 123.66 135.78 126.79 133.08
  Q 129.06 131.13 131.12 128.07
  A 3.14 3.13 57.1 0 0 131.61 125.77
  Q 129.05 111.36 123.24 98.83
  C 121.57 95.22 114.62 84.95 108.73 84.43
  A 1.59 1.59 0.0 0 0 107.24 85.19
  Q 105.09 88.73 104.46 92.23
  Q 103.29 98.62 103.22 103.40
  Z"
/>
<path fill="#110f0f" d="
  M 531.07 223.23
  L 529.84 232.75
  A 2.17 2.12 64.9 0 1 529.56 233.55
  Q 528.67 235.05 526.34 235.87
  Q 520.54 237.90 518.56 238.69
  A 1.79 1.78 58.9 0 0 517.87 241.50
  C 521.04 245.24 526.05 251.73 526.44 256.50
  C 526.88 261.83 526.01 271.86 518.60 272.28
  A 0.54 0.54 0.0 0 0 518.10 272.92
  Q 520.41 286.24 520.20 299.20
  A 3.04 3.03 -23.3 0 1 519.40 301.20
  L 514.00 307.01
  A 1.36 1.36 0.0 0 0 514.37 309.14
  C 517.10 310.57 521.04 310.72 524.06 313.87
  A 1.87 1.86 -69.6 0 1 524.57 314.99
  C 525.14 321.06 523.17 325.71 521.09 330.91
  A 1.40 1.39 25.6 0 0 521.70 332.64
  C 524.91 334.48 528.33 338.20 524.94 341.96
  Q 523.28 343.80 520.79 346.26
  A 1.16 1.15 41.7 0 0 520.89 347.99
  L 524.43 350.77
  A 2.77 2.59 87.5 0 1 524.93 351.26
  Q 530.36 358.20 526.49 365.31
  C 523.26 371.25 513.67 374.26 519.78 383.35
  Q 522.23 386.99 523.13 387.93
  A 3.33 3.31 -73.9 0 1 524.00 389.52
  Q 525.25 394.83 523.76 398.34
  Q 522.90 400.38 520.40 404.87
  A 6.51 6.48 54.5 0 0 519.69 409.17
  Q 520.99 416.40 521.31 419.49
  C 521.69 423.14 521.33 425.39 519.58 429.07
  Q 517.16 434.14 515.35 438.88
  C 514.45 441.26 514.40 443.15 515.07 445.71
  Q 517.95 456.73 519.01 462.07
  A 2.37 2.37 0.0 0 1 518.41 464.16
  C 513.19 469.72 505.34 473.93 498.71 477.44
  Q 493.16 480.39 489.08 476.01
  Q 487.55 474.37 487.36 471.92
  C 487.13 468.94 485.70 464.99 483.49 462.38
  Q 481.19 459.64 479.62 455.38
  A 2.93 2.76 37.3 0 1 479.45 454.36
  C 479.51 450.77 481.24 449.13 483.76 446.97
  A 2.03 1.95 -10.1 0 0 484.30 446.23
  C 485.63 443.01 483.70 442.04 480.84 441.49
  Q 478.14 440.98 473.40 440.40
  Q 471.58 440.18 470.41 438.82
  A 1.62 1.59 22.4 0 1 470.04 437.95
  Q 469.34 431.46 472.91 425.72
  A 0.88 0.88 0.0 0 0 472.26 424.39
  C 468.30 423.94 462.70 420.96 462.25 416.54
  Q 461.36 407.67 468.29 402.17
  A 0.88 0.88 0.0 0 0 468.18 400.73
  Q 467.31 400.22 464.06 397.87
  C 459.01 394.23 459.89 388.01 462.62 383.08
  Q 464.90 378.98 465.81 376.76
  A 2.84 2.84 0.0 0 0 464.95 373.48
  Q 460.71 370.10 458.43 365.13
  A 0.48 0.48 0.0 0 0 457.56 365.14
  Q 453.80 373.62 452.84 376.34
  C 452.20 378.19 452.21 381.13 452.67 383.22
  C 454.02 389.50 455.81 395.84 456.59 402.21
  A 11.44 10.14 46.3 0 1 456.65 403.82
  Q 456.49 407.94 455.69 417.50
  C 455.21 423.20 453.27 433.71 448.81 437.58
  C 443.48 442.21 435.25 443.19 428.82 440.46
  C 425.02 438.85 424.18 432.94 424.79 429.47
  Q 424.93 428.67 426.20 428.48
  A 1.63 1.53 -14.0 0 1 427.95 429.46
  C 429.29 433.18 429.69 436.96 433.76 437.02
  Q 436.72 437.07 440.51 436.55
  A 4.62 4.53 -60.5 0 0 441.65 436.22
  C 448.49 433.19 450.89 426.13 451.43 418.99
  Q 452.40 406.18 451.33 398.61
  Q 449.72 387.19 448.86 378.69
  Q 448.44 374.52 449.79 370.26
  Q 452.66 361.18 454.54 355.80
  Q 455.93 351.83 455.27 347.41
  A 0.45 0.45 0.0 0 0 454.49 347.18
  L 451.17 350.88
  A 2.75 2.67 8.5 0 1 450.21 351.57
  Q 447.63 352.67 444.05 352.60
  A 2.03 2.02 -76.2 0 0 442.21 353.72
  C 440.87 356.43 438.71 360.04 436.95 361.82
  C 433.54 365.26 428.08 361.57 424.86 359.42
  A 1.81 1.80 35.2 0 0 422.42 359.84
  C 419.58 363.63 418.88 366.26 413.50 366.69
  Q 412.22 366.79 410.72 367.73
  A 1.42 1.40 -10.1 0 0 410.11 368.59
  C 408.27 376.44 408.75 385.56 415.13 390.92
  Q 420.56 395.48 423.27 398.17
  Q 428.15 403.01 427.22 410.18
  C 426.85 413.06 426.07 421.26 423.39 423.49
  A 1.07 1.07 0.0 0 1 421.64 422.63
  Q 421.84 415.97 421.62 409.32
  C 421.48 405.18 419.59 402.06 416.19 399.48
  C 409.79 394.60 403.44 389.57 403.35 380.72
  Q 403.30 376.04 403.84 370.89
  A 0.66 0.65 87.1 0 0 403.06 370.18
  Q 396.44 371.57 390.16 370.92
  C 389.60 370.86 388.28 370.40 387.38 370.35
  A 1.33 1.32 21.8 0 0 386.32 370.80
  L 383.93 373.52
  A 2.13 2.10 -80.0 0 1 383.20 374.04
  L 375.55 377.25
  A 1.91 1.91 0.0 0 0 374.87 380.29
  C 378.02 383.79 380.69 386.85 380.17 391.96
  Q 379.94 394.20 378.46 394.94
  Q 375.84 396.24 371.35 396.39
  C 367.11 396.52 366.85 401.25 368.95 403.80
  C 372.75 408.39 376.42 410.49 374.86 417.19
  Q 372.86 425.84 372.10 429.88
  C 371.11 435.19 374.04 436.29 378.64 436.15
  C 382.95 436.01 387.75 435.76 390.20 439.79
  A 2.86 2.82 -63.0 0 1 390.60 441.05
  Q 391.04 447.16 389.75 453.66
  A 2.15 2.15 0.0 0 0 391.44 456.19
  C 397.32 457.36 405.07 460.84 404.65 468.00
  Q 404.37 472.69 403.11 475.22
  C 401.79 477.87 398.23 481.32 400.18 485.11
  Q 401.95 488.54 404.83 495.73
  Q 405.81 498.14 405.22 501.23
  Q 403.85 508.40 397.53 511.24
  A 1.18 1.18 0.0 0 0 396.93 512.79
  Q 398.47 516.28 399.43 520.23
  C 401.07 526.95 397.26 531.89 392.83 536.20
  C 389.72 539.22 386.89 542.05 382.97 540.84
  C 379.89 539.89 375.29 538.58 375.60 535.03
  A 0.94 0.94 0.0 0 1 376.75 534.19
  Q 382.05 535.36 387.13 534.21
  Q 389.37 533.70 391.51 530.29
  C 394.28 525.87 394.19 521.38 392.06 516.39
  C 390.60 512.97 388.32 507.88 392.01 505.05
  Q 392.35 504.79 395.11 503.93
  C 402.61 501.60 401.57 495.17 399.33 489.11
  Q 397.96 485.40 394.38 483.21
  A 0.95 0.94 -65.3 0 1 393.97 482.09
  Q 395.15 478.66 397.27 475.17
  Q 398.72 472.78 398.99 467.81
  C 399.36 461.17 393.08 460.32 387.55 459.42
  Q 384.62 458.94 384.71 455.50
  C 384.82 451.29 385.90 445.43 384.76 441.45
  A 2.40 2.39 -7.0 0 0 382.54 439.72
  Q 379.29 439.61 375.00 440.12
  Q 371.94 440.48 369.76 439.93
  A 2.52 2.51 6.0 0 1 367.86 437.59
  Q 367.46 425.95 369.73 414.48
  Q 370.44 410.86 368.09 408.19
  C 364.80 404.45 358.76 398.01 365.03 394.71
  Q 370.74 391.69 373.40 389.70
  C 378.83 385.64 372.19 382.54 369.62 380.17
  A 2.39 2.39 0.0 0 1 368.90 377.97
  C 369.71 373.87 374.01 371.71 376.44 369.41
  C 379.13 366.86 375.56 361.57 373.51 357.25
  A 1.38 1.38 0.0 0 1 375.51 355.50
  C 379.82 358.29 382.68 362.60 387.49 364.95
  A 5.24 5.20 -32.5 0 0 389.97 365.49
  Q 401.52 365.20 410.85 362.60
  C 412.62 362.11 414.45 360.70 415.75 359.05
  Q 418.99 354.96 422.53 352.18
  A 2.08 2.07 -50.9 0 1 424.73 351.95
  L 432.02 355.52
  A 1.28 1.27 -47.7 0 0 433.25 355.46
  C 436.33 353.56 437.01 350.41 438.35 346.56
  A 0.91 0.91 0.0 0 1 439.45 345.98
  Q 442.07 346.67 445.58 346.29
  C 449.42 345.89 451.35 342.06 453.84 339.30
  A 2.41 2.39 -76.9 0 1 454.99 338.58
  C 456.55 338.14 458.96 338.26 461.20 336.97
  A 1.68 1.67 -2.6 0 0 461.86 336.25
  Q 462.36 335.15 468.18 323.25
  Q 469.00 321.57 468.26 319.27
  Q 466.58 313.98 460.95 313.41
  A 3.05 3.04 -87.2 0 1 458.21 310.38
  L 458.21 310.02
  A 1.94 1.93 -83.0 0 1 460.61 308.14
  Q 468.01 309.98 471.61 317.44
  C 474.62 323.69 471.12 332.29 467.02 337.31
  A 1.63 1.63 0.0 0 0 467.07 339.43
  C 471.24 344.08 476.34 349.65 471.36 355.81
  Q 468.95 358.80 465.99 361.00
  C 461.10 364.63 464.90 369.91 468.02 373.29
  Q 469.07 374.42 470.23 377.12
  A 3.02 3.02 0.0 0 1 470.31 379.27
  L 465.72 392.69
  A 2.14 2.12 -50.5 0 0 465.88 394.45
  Q 467.22 396.83 468.01 397.31
  C 470.97 399.14 473.53 400.30 474.72 402.19
  A 2.92 2.91 -39.9 0 1 474.39 405.83
  L 468.32 412.10
  A 2.63 2.63 0.0 0 0 467.98 415.33
  C 469.99 418.56 476.22 419.11 479.56 419.79
  A 1.67 1.66 -71.2 0 1 480.72 422.15
  L 474.79 434.22
  A 1.73 1.73 0.0 0 0 476.05 436.68
  C 479.56 437.30 488.50 438.60 489.14 443.04
  C 489.87 448.04 487.64 452.14 484.54 456.04
  A 1.98 1.97 44.6 0 0 484.56 458.53
  C 487.44 462.00 491.31 465.80 490.76 469.70
  Q 490.52 471.42 491.22 473.44
  A 2.45 2.45 0.0 0 0 494.22 475.00
  Q 500.74 473.10 507.87 467.63
  C 511.53 464.81 513.46 462.19 513.07 457.25
  Q 512.55 450.70 511.14 443.52
  Q 509.59 435.58 512.92 428.20
  C 514.51 424.68 516.07 421.31 516.51 417.81
  C 517.08 413.22 511.88 407.34 514.35 402.32
  Q 517.70 395.51 519.03 392.26
  C 519.65 390.74 519.03 388.67 518.03 387.11
  C 514.91 382.28 508.66 374.16 512.89 370.16
  C 516.51 366.73 523.41 364.09 524.78 358.55
  C 525.97 353.73 520.42 351.27 516.65 351.16
  C 513.88 351.09 512.29 350.32 512.51 347.43
  C 512.83 343.23 519.28 343.43 520.64 339.57
  Q 521.45 337.27 519.29 334.86
  A 0.94 0.90 -12.6 0 0 518.81 334.57
  L 515.45 333.83
  A 1.73 1.73 0.0 0 1 514.20 331.55
  Q 515.44 328.14 517.18 325.35
  C 519.00 322.42 519.61 320.29 519.89 317.42
  A 2.86 2.85 18.4 0 0 518.53 314.71
  Q 515.45 312.84 512.87 312.44
  C 509.89 311.98 508.26 310.91 506.89 308.80
  A 2.07 2.07 0.0 0 1 506.56 307.75
  C 506.34 302.25 509.28 299.22 514.51 298.46
  Q 517.12 298.08 516.88 294.78
  Q 516.12 284.29 515.46 278.58
  C 514.98 274.49 511.55 271.72 512.61 266.85
  A 1.01 1.00 -3.9 0 1 513.24 266.13
  Q 514.18 265.78 517.49 264.04
  C 523.14 261.07 520.49 254.86 517.68 250.81
  Q 514.35 246.00 511.59 241.60
  A 1.30 1.27 40.2 0 1 511.48 240.46
  Q 513.07 236.16 513.63 235.56
  Q 516.56 232.45 520.93 230.45
  C 523.73 229.17 526.49 226.75 525.41 223.40
  C 524.53 220.66 522.43 216.10 527.11 215.65
  Q 527.94 215.57 529.82 216.15
  C 533.89 217.40 536.01 213.32 534.87 209.92
  Q 532.89 203.98 532.69 203.09
  Q 532.32 201.43 532.63 200.72
  A 2.67 2.42 18.6 0 1 535.64 199.40
  Q 539.76 200.43 541.81 200.62
  A 1.62 1.62 0.0 0 0 543.51 198.56
  C 542.62 195.54 538.74 192.20 536.65 190.19
  A 1.80 1.80 0.0 0 1 536.17 189.38
  Q 535.78 187.97 536.32 186.31
  C 538.01 181.14 541.98 174.02 541.51 167.06
  Q 541.27 163.54 537.28 163.43
  A 2.60 2.55 36.1 0 0 536.33 163.57
  Q 532.33 164.93 526.82 167.35
  Q 525.52 167.92 519.53 167.70
  A 3.77 3.42 -32.6 0 1 518.64 167.55
  Q 513.70 166.06 508.59 165.41
  C 500.77 164.42 492.91 168.31 492.22 176.76
  Q 491.86 181.21 492.74 185.78
  C 494.00 192.30 496.11 200.16 495.13 201.79
  C 492.65 205.91 486.94 207.72 483.85 211.56
  Q 479.88 216.49 477.63 221.49
  A 1.13 1.12 40.2 0 1 475.67 221.65
  C 472.47 216.87 469.18 213.67 462.74 214.52
  Q 455.97 215.43 451.31 220.48
  A 0.59 0.59 0.0 0 1 450.29 220.09
  Q 450.24 216.72 448.60 213.19
  C 446.92 209.59 444.00 208.18 440.24 208.45
  Q 431.18 209.11 422.48 211.65
  A 0.55 0.55 0.0 0 1 421.78 211.03
  Q 423.82 199.67 415.29 195.05
  C 409.88 192.13 404.77 192.31 400.15 196.43
  Q 399.14 197.33 396.58 199.73
  A 1.32 1.32 0.0 0 1 394.70 199.65
  C 388.90 193.32 384.95 188.69 375.64 193.43
  Q 372.02 195.27 364.85 199.45
  A 1.36 1.36 0.0 0 1 362.80 198.30
  Q 362.78 196.98 363.74 195.48
  C 365.77 192.32 371.25 183.30 364.61 182.66
  Q 361.19 182.33 358.15 183.18
  Q 349.33 185.66 342.28 189.56
  A 0.80 0.80 0.0 0 1 341.38 188.24
  Q 349.20 181.70 359.56 179.43
  C 366.55 177.90 371.87 179.35 372.78 187.10
  A 0.88 0.88 0.0 0 0 373.94 187.84
  Q 386.85 183.57 396.53 193.08
  A 1.37 1.36 -35.2 0 0 398.05 193.34
  Q 402.90 191.08 406.46 189.75
  C 413.08 187.29 418.84 189.86 424.13 193.61
  A 3.65 3.64 -72.3 0 1 425.66 196.58
  L 425.66 206.13
  A 0.61 0.61 0.0 0 0 426.50 206.69
  Q 433.84 203.61 442.13 204.17
  C 447.78 204.55 450.10 207.84 452.65 212.39
  A 0.69 0.68 62.0 0 0 453.54 212.67
  Q 459.40 209.80 465.16 208.91
  A 5.07 4.49 -43.7 0 1 466.23 208.87
  Q 471.42 209.27 475.41 213.08
  A 0.54 0.54 0.0 0 0 476.28 212.92
  Q 480.61 203.51 489.29 196.54
  Q 490.58 195.49 489.79 193.28
  Q 486.45 184.02 486.94 175.36
  Q 487.39 167.27 492.86 163.52
  C 497.96 160.03 505.03 157.68 511.27 159.58
  Q 521.00 162.54 523.90 163.41
  A 6.87 6.86 45.6 0 0 527.71 163.45
  C 533.59 161.82 541.00 159.15 545.35 163.04
  C 551.26 168.32 545.88 180.14 542.96 185.71
  A 2.61 2.59 49.1 0 0 542.82 187.80
  C 545.02 193.79 546.49 196.57 546.84 200.14
  C 547.45 206.39 546.47 208.47 539.80 209.47
  A 0.70 0.69 88.0 0 0 539.21 210.11
  C 538.84 216.31 540.32 222.48 531.62 222.73
  A 0.58 0.57 2.3 0 0 531.07 223.23
  Z
  M 463.94 356.43
  L 466.73 353.04
  A 4.63 4.62 -39.8 0 0 467.21 347.84
  Q 464.76 343.45 461.32 342.58
  A 1.78 1.78 0.0 0 0 459.11 344.15
  Q 458.62 349.71 460.77 355.86
  A 1.85 1.85 0.0 0 0 463.94 356.43
  Z"
/>
<path fill="#110f0f" d="
  M 182.02 189.59
  A 1.21 1.20 -66.4 0 1 180.30 190.27
  Q 178.93 189.54 178.57 187.61
  Q 177.13 180.00 179.96 173.18
  A 1.13 1.13 0.0 0 1 182.12 173.45
  Q 182.89 178.72 182.29 182.48
  C 181.94 184.68 182.63 187.72 182.02 189.59
  Z"
/>
<path fill="#110f0f" d="
  M 262.71 183.21
  Q 262.90 182.23 264.38 181.57
  Q 269.11 179.49 275.35 178.14
  Q 286.09 175.81 296.17 174.66
  Q 302.75 173.90 310.67 175.60
  Q 321.06 177.83 328.16 180.83
  Q 330.97 182.02 332.49 183.30
  A 1.95 1.94 -45.3 0 1 332.50 186.26
  Q 329.91 188.48 326.29 189.52
  Q 312.72 193.42 298.42 193.58
  C 294.07 193.63 291.99 194.00 288.60 194.20
  A 11.21 11.16 -41.3 0 1 286.02 194.04
  C 281.94 193.28 277.94 193.92 273.74 192.64
  A 0.81 0.80 -66.1 0 1 273.29 191.46
  Q 273.56 191.00 274.02 190.96
  C 279.45 190.54 284.38 189.74 289.67 189.45
  Q 298.96 188.94 312.12 187.65
  Q 318.14 187.06 323.67 185.36
  A 0.94 0.94 0.0 0 0 323.92 183.68
  C 320.54 181.38 316.44 180.87 312.26 180.22
  C 307.58 179.49 303.80 179.65 299.92 179.15
  C 296.12 178.65 290.73 179.33 287.26 179.78
  Q 278.90 180.87 263.27 183.78
  A 0.48 0.48 0.0 0 1 262.71 183.21
  Z"
/>
<path fill="#110f0f" d="
  M 193.84 193.18
  A 0.90 0.90 0.0 0 1 192.15 193.30
  Q 189.13 186.32 192.00 179.26
  A 1.58 1.58 0.0 0 1 194.88 179.16
  C 195.33 180.07 195.80 182.08 195.59 183.67
  Q 194.76 189.80 193.84 193.18
  Z"
/>
<path fill="#110f0f" d="
  M 83.15 208.40
  A 0.58 0.58 0.0 0 1 83.47 209.44
  C 81.72 210.80 79.57 211.82 77.09 211.60
  C 73.28 211.25 69.40 212.16 63.85 213.16
  A 8.32 8.10 -48.9 0 1 62.14 213.30
  C 56.12 213.22 34.37 211.69 41.92 199.36
  Q 44.61 194.95 50.06 192.03
  Q 60.96 186.18 73.71 182.84
  Q 82.67 180.49 88.96 181.01
  C 94.18 181.45 104.13 183.66 107.02 188.40
  A 1.02 1.02 0.0 0 1 106.09 189.95
  C 101.71 189.70 98.65 186.46 94.54 185.52
  C 82.25 182.73 71.27 186.18 59.17 190.57
  C 53.29 192.71 47.56 197.18 45.62 202.32
  C 43.39 208.28 50.04 208.55 54.03 208.94
  C 58.20 209.34 62.47 208.42 66.17 208.67
  Q 67.18 208.74 72.85 208.35
  Q 76.93 208.07 83.15 208.40
  Z"
/>
<path fill="#110f0f" d="
  M 208.24 201.05
  A 0.62 0.62 0.0 0 1 207.51 201.54
  L 207.27 201.49
  A 2.63 2.51 -79.2 0 1 205.29 198.44
  L 205.63 196.69
  A 2.63 2.51 -79.2 0 1 208.59 194.58
  L 208.83 194.62
  A 0.62 0.62 0.0 0 1 209.32 195.35
  L 208.24 201.05
  Z"
/>
<path fill="#110f0f" d="
  M 144.07 200.17
  C 148.96 199.35 154.63 203.09 157.24 206.76
  Q 159.96 210.59 159.79 215.96
  C 159.57 223.21 157.29 230.45 149.37 231.78
  C 141.44 233.11 136.93 227.01 134.35 220.23
  Q 132.44 215.20 133.76 210.70
  C 135.03 206.37 139.17 200.99 144.07 200.17
  Z
  M 154.20 222.65
  C 155.13 219.18 156.24 215.50 155.42 212.45
  C 153.89 206.80 147.19 201.87 141.92 206.38
  C 137.35 210.29 137.83 217.53 141.13 222.01
  A 0.61 0.60 -47.7 0 0 142.14 221.96
  Q 143.99 218.84 147.17 218.13
  A 2.92 2.91 62.7 0 1 149.97 219.03
  L 153.40 222.84
  A 0.47 0.46 -58.1 0 0 154.20 222.65
  Z"
/>
<path fill="#110f0f" d="
  M 232.00 205.91
  C 240.57 214.51 234.27 230.64 223.23 233.19
  Q 213.37 235.47 208.65 225.65
  C 204.95 217.94 206.29 207.67 213.59 202.61
  C 219.81 198.30 227.04 200.93 232.00 205.91
  Z
  M 225.42 225.46
  A 1.06 1.05 -33.1 0 0 227.00 225.79
  C 231.62 222.18 233.86 215.13 229.88 210.48
  C 225.00 204.81 216.92 202.22 212.25 210.06
  A 3.31 3.27 67.8 0 0 211.87 210.98
  Q 210.23 217.52 210.51 221.03
  Q 210.93 226.27 216.03 228.42
  A 1.75 1.75 0.0 0 0 218.46 226.85
  Q 218.47 226.53 218.23 222.48
  Q 218.19 221.65 219.53 219.77
  Q 220.56 218.32 221.67 218.81
  C 224.09 219.89 224.65 223.99 225.42 225.46
  Z"
/>
<path fill="#ffffff" d="
  M 154.20 222.65
  A 0.47 0.46 -58.1 0 1 153.40 222.84
  L 149.97 219.03
  A 2.92 2.91 62.7 0 0 147.17 218.13
  Q 143.99 218.84 142.14 221.96
  A 0.61 0.60 -47.7 0 1 141.13 222.01
  C 137.83 217.53 137.35 210.29 141.92 206.38
  C 147.19 201.87 153.89 206.80 155.42 212.45
  C 156.24 215.50 155.13 219.18 154.20 222.65
  Z"
/>
<path fill="#ffffff" d="
  M 225.42 225.46
  C 224.65 223.99 224.09 219.89 221.67 218.81
  Q 220.56 218.32 219.53 219.77
  Q 218.19 221.65 218.23 222.48
  Q 218.47 226.53 218.46 226.85
  A 1.75 1.75 0.0 0 1 216.03 228.42
  Q 210.93 226.27 210.51 221.03
  Q 210.23 217.52 211.87 210.98
  A 3.31 3.27 67.8 0 1 212.25 210.06
  C 216.92 202.22 225.00 204.81 229.88 210.48
  C 233.86 215.13 231.62 222.18 227.00 225.79
  A 1.06 1.05 -33.1 0 1 225.42 225.46
  Z"
/>
<path fill="#110f0f" d="
  M 274.28 211.12
  L 274.38 211.36
  A 0.11 0.10 51.7 0 1 274.37 211.47
  C 267.61 219.79 264.32 224.49 257.73 229.22
  Q 256.31 230.24 254.89 234.64
  Q 252.52 241.99 251.39 245.69
  C 249.09 253.21 246.28 260.35 240.84 266.61
  Q 231.90 276.92 221.69 285.02
  A 3.57 3.56 -55.6 0 1 218.41 285.64
  L 218.31 285.61
  A 1.16 1.16 0.0 0 1 217.84 283.68
  C 221.13 280.40 225.76 277.38 228.76 274.46
  C 237.93 265.52 245.21 255.13 248.57 242.46
  Q 250.03 236.98 251.85 231.09
  Q 253.93 224.37 258.08 221.32
  A 4.57 4.44 14.4 0 1 259.27 220.64
  L 265.29 218.36
  A 2.56 2.46 -75.5 0 0 266.10 217.86
  L 273.74 211.00
  A 0.34 0.34 0.0 0 1 274.28 211.12
  Z"
/>
<path fill="#110f0f" d="
  M 372.42 531.57
  A 0.33 0.33 0.0 0 1 372.21 532.18
  L 364.08 531.13
  A 2.56 2.55 82.3 0 1 362.06 529.59
  L 359.30 523.03
  A 3.24 3.23 87.0 0 0 357.24 521.17
  Q 350.55 519.13 348.21 511.36
  A 1.51 1.50 -41.9 0 1 348.27 510.30
  L 351.56 502.73
  A 1.36 1.36 0.0 0 0 350.61 500.86
  Q 345.71 499.79 343.13 498.64
  Q 336.59 495.72 337.10 489.34
  C 337.40 485.60 340.87 481.38 342.91 478.72
  C 346.04 474.64 342.14 472.16 338.50 472.15
  Q 329.31 472.15 328.77 472.12
  Q 325.83 471.98 323.74 469.77
  C 322.39 468.36 322.84 467.18 322.71 465.64
  Q 322.31 460.73 325.60 456.74
  A 1.47 1.47 0.0 0 0 325.20 454.52
  L 319.84 451.42
  A 1.72 1.71 7.8 0 1 319.03 450.36
  C 317.24 443.26 320.81 440.78 325.48 436.61
  A 1.75 1.74 51.4 0 0 325.73 434.29
  C 323.88 431.74 320.47 428.99 319.26 426.19
  C 316.69 420.22 320.71 416.46 325.28 413.17
  A 1.27 1.27 0.0 0 0 325.65 411.52
  L 321.30 403.78
  A 0.55 0.51 -69.2 0 1 321.22 403.58
  C 320.40 399.01 321.74 396.37 322.70 392.97
  A 1.83 1.82 -65.8 0 0 321.93 390.92
  Q 320.69 390.12 319.02 389.52
  C 317.08 388.82 315.05 389.71 313.07 389.33
  A 4.46 4.41 63.7 0 1 311.85 388.91
  Q 309.61 387.71 306.21 385.13
  Q 304.55 383.87 301.94 384.97
  Q 297.75 386.72 295.54 387.50
  A 3.80 3.79 52.8 0 1 292.10 387.03
  L 288.48 384.49
  A 1.60 1.59 43.9 0 0 286.61 384.52
  C 278.58 390.52 274.03 389.76 268.63 381.18
  A 0.95 0.95 0.0 0 0 267.33 380.88
  Q 263.34 383.37 258.33 384.58
  A 4.08 3.92 -50.9 0 1 257.36 384.70
  L 251.65 384.70
  A 1.85 1.83 24.0 0 0 250.43 385.16
  Q 245.44 389.63 244.17 396.50
  Q 243.83 398.34 244.61 402.25
  C 245.19 405.20 245.56 411.76 242.94 414.16
  Q 241.92 415.09 235.29 417.26
  Q 231.55 418.48 230.87 422.87
  C 229.94 428.86 229.04 434.25 225.88 438.58
  C 223.01 442.51 217.30 448.40 212.31 449.95
  A 5.22 5.06 -54.6 0 1 211.17 450.16
  L 205.91 450.54
  A 1.31 1.31 0.0 0 0 205.02 450.96
  Q 203.48 452.57 203.50 454.04
  Q 203.55 458.77 202.56 464.27
  Q 201.95 467.66 199.18 468.39
  Q 192.58 470.10 190.35 470.94
  A 3.42 3.39 13.2 0 0 189.18 471.66
  C 185.65 474.95 183.98 479.07 182.70 483.78
  A 3.02 3.02 0.0 0 1 180.59 485.90
  Q 176.59 487.03 173.95 489.91
  C 172.38 491.61 175.22 496.88 175.75 498.12
  C 179.41 506.76 170.66 512.58 163.99 515.34
  A 1.06 1.05 -13.0 0 0 163.34 516.37
  Q 163.88 526.72 155.17 532.20
  Q 155.00 532.31 154.66 532.27
  A 0.48 0.47 22.0 0 1 154.34 531.52
  C 157.81 526.77 160.46 519.59 159.11 513.62
  A 1.28 1.27 67.5 0 1 159.67 512.26
  Q 165.69 508.42 169.65 503.98
  C 172.62 500.64 171.60 496.23 171.09 491.29
  C 170.72 487.80 175.54 483.98 178.36 482.42
  A 6.32 6.30 0.1 0 0 180.77 480.03
  C 183.53 475.23 186.32 469.53 191.61 467.33
  Q 194.35 466.19 199.21 462.18
  A 1.39 1.38 -19.2 0 0 199.71 461.16
  C 199.94 455.63 198.94 447.24 205.17 444.42
  C 211.10 441.72 216.49 440.04 219.95 436.99
  C 224.69 432.82 228.48 429.41 227.87 422.49
  Q 227.57 419.09 228.58 416.22
  A 1.83 1.79 86.4 0 1 229.47 415.19
  Q 231.37 414.22 238.43 409.19
  Q 241.69 406.86 241.06 403.46
  Q 239.92 397.29 238.98 393.40
  A 3.43 3.37 -44.5 0 1 239.01 391.68
  C 240.53 386.31 245.81 383.74 250.42 380.74
  A 1.38 1.37 -58.8 0 0 249.81 378.22
  Q 247.78 378.03 245.84 379.13
  Q 239.17 382.92 230.93 384.25
  A 1.58 1.57 55.6 0 1 229.88 384.05
  C 226.50 382.10 225.59 378.24 224.29 374.20
  A 2.00 1.99 74.9 0 0 221.97 372.86
  Q 217.22 373.89 211.74 373.65
  Q 209.09 373.53 208.34 371.21
  Q 206.23 364.68 205.37 358.30
  A 0.69 0.69 0.0 0 0 204.65 357.71
  C 203.74 357.75 203.16 358.46 202.02 358.44
  Q 196.81 358.32 192.05 355.59
  A 1.97 1.96 39.4 0 0 189.79 355.81
  C 184.87 360.09 182.36 366.24 186.95 371.66
  A 2.00 1.99 -43.9 0 1 186.89 374.30
  C 185.23 376.11 181.90 379.01 180.70 381.50
  C 177.34 388.48 178.62 397.10 184.53 402.21
  Q 186.37 403.80 188.44 404.22
  A 0.59 0.59 0.0 0 1 188.71 405.25
  Q 181.56 411.43 177.22 418.96
  Q 170.10 431.30 169.42 444.85
  A 0.73 0.72 -75.8 0 1 168.38 445.47
  L 167.40 444.98
  A 1.35 1.33 12.5 0 1 166.64 443.81
  Q 166.47 438.15 169.16 427.72
  Q 172.14 416.14 180.37 407.84
  A 1.15 1.15 0.0 0 0 180.38 406.23
  C 173.48 399.06 172.57 388.88 175.39 379.42
  Q 176.86 374.53 181.18 372.61
  A 0.95 0.94 -8.8 0 0 181.74 371.85
  Q 181.78 371.54 180.98 367.54
  C 179.69 361.06 184.27 354.15 188.39 348.88
  C 190.41 346.31 190.30 342.09 190.84 339.01
  A 0.88 0.87 7.5 0 0 190.05 337.99
  C 187.54 337.80 178.87 336.01 179.84 332.06
  Q 181.90 323.64 185.28 316.15
  A 0.58 0.57 13.2 0 0 184.77 315.34
  Q 175.29 315.01 166.82 312.44
  C 154.97 308.84 146.28 296.40 141.07 285.56
  Q 139.18 281.63 136.28 271.88
  C 132.86 260.35 130.49 249.32 122.85 240.75
  Q 116.50 233.64 109.10 227.40
  A 0.66 0.65 52.0 0 1 109.23 226.31
  L 109.31 226.28
  A 1.62 1.61 -39.7 0 1 110.99 226.43
  C 121.61 234.34 131.60 244.90 136.10 257.21
  C 141.38 271.69 145.01 282.26 151.71 293.80
  C 156.96 302.86 166.24 309.85 176.82 310.63
  C 184.56 311.20 191.48 312.13 198.51 307.76
  Q 203.44 304.69 212.25 299.22
  A 0.66 0.66 0.0 0 1 213.25 299.72
  L 213.29 300.14
  A 1.29 1.28 -23.8 0 1 212.86 301.24
  Q 205.40 307.86 196.30 313.78
  A 7.95 7.81 5.7 0 0 195.08 314.76
  Q 189.66 320.14 185.66 327.93
  Q 184.92 329.37 184.85 330.51
  A 1.93 1.92 -87.3 0 0 186.71 332.56
  Q 189.59 332.65 196.41 331.80
  Q 198.23 331.57 198.94 332.93
  A 1.50 1.47 -53.7 0 1 199.08 333.93
  Q 198.07 338.51 195.71 345.72
  Q 195.07 347.70 195.55 349.51
  A 1.11 1.10 -86.2 0 0 196.18 350.24
  Q 200.09 351.99 201.50 352.08
  Q 207.04 352.43 210.87 353.25
  A 1.13 1.12 -88.2 0 1 211.75 354.20
  C 211.96 355.85 211.86 357.99 211.36 359.86
  C 207.80 373.41 222.24 366.94 227.49 364.75
  Q 228.98 364.13 231.27 364.14
  A 1.49 1.48 -86.3 0 1 232.74 365.82
  Q 232.33 368.84 230.63 372.51
  A 3.53 2.69 -61.5 0 0 231.25 376.50
  Q 234.05 378.48 237.85 377.54
  Q 242.51 376.39 247.74 374.80
  C 252.03 373.49 253.67 376.50 256.54 379.85
  A 2.01 2.00 -36.3 0 0 259.13 380.24
  L 263.46 377.51
  A 1.23 1.10 3.2 0 0 263.66 377.35
  C 265.82 375.11 268.95 372.31 271.68 371.25
  A 1.72 1.72 0.0 0 1 274.01 372.69
  L 274.77 380.49
  A 2.85 2.85 0.0 0 0 278.01 383.03
  L 281.27 382.57
  A 1.13 1.09 -71.0 0 0 281.80 382.30
  Q 284.42 379.86 288.06 376.55
  Q 288.51 376.14 290.04 375.65
  A 2.03 2.02 -16.3 0 1 292.61 377.05
  L 294.29 383.29
  A 1.30 1.29 -9.7 0 0 295.64 384.24
  C 298.12 384.06 302.18 380.37 304.35 378.38
  C 305.90 376.96 307.44 378.17 308.42 379.91
  C 310.01 382.75 312.30 385.81 315.62 386.38
  A 1.98 1.96 37.9 0 0 316.70 386.25
  L 321.38 384.29
  A 1.04 1.04 0.0 0 0 321.90 383.80
  L 323.21 381.14
  A 1.31 1.31 0.0 0 1 324.26 380.41
  C 326.91 380.18 330.17 378.98 330.65 375.81
  Q 331.12 372.83 331.14 372.73
  A 1.20 1.20 0.0 0 1 332.63 371.88
  C 335.72 372.76 337.72 371.15 337.77 367.79
  Q 337.84 362.56 337.69 359.02
  A 1.28 1.28 0.0 0 1 338.43 357.80
  C 342.24 356.07 344.64 354.78 347.16 351.12
  A 2.87 2.86 -25.6 0 0 347.65 349.73
  Q 348.08 343.93 344.61 340.51
  A 0.75 0.75 0.0 0 1 345.26 339.23
  Q 348.36 339.74 351.06 341.91
  Q 353.20 343.61 353.38 347.46
  Q 353.75 355.38 348.20 360.96
  C 346.72 362.44 344.11 362.78 343.69 365.26
  Q 342.44 372.65 336.28 376.63
  A 3.49 3.43 87.1 0 0 335.08 377.98
  Q 332.17 383.86 326.19 386.07
  A 1.18 1.18 0.0 0 0 325.88 388.12
  L 330.91 391.93
  A 0.59 0.58 36.9 0 1 331.03 392.74
  Q 328.27 396.52 326.62 401.78
  C 325.93 403.96 329.46 407.81 331.34 410.16
  Q 333.81 413.24 330.97 416.18
  Q 327.74 419.51 324.39 422.86
  Q 323.28 423.96 323.10 425.57
  A 1.05 1.05 0.0 0 0 323.37 426.39
  L 330.58 434.42
  A 3.99 3.99 0.0 0 1 331.41 438.32
  C 330.35 441.61 325.17 444.76 323.39 446.97
  A 1.78 1.78 0.0 0 0 324.11 449.74
  Q 324.90 450.06 330.82 452.22
  C 332.56 452.85 332.71 454.92 332.12 456.71
  Q 330.89 460.45 329.32 464.16
  A 2.41 2.41 0.0 0 0 330.37 467.20
  C 331.43 467.77 333.49 468.44 335.03 468.61
  Q 341.00 469.25 346.07 470.45
  A 2.05 2.04 -0.2 0 1 347.58 471.94
  Q 348.92 477.42 347.44 482.90
  C 346.67 485.78 344.90 487.39 342.87 490.10
  C 341.73 491.63 340.72 493.87 342.62 495.39
  Q 344.65 497.01 345.83 497.25
  Q 353.13 498.70 354.71 499.24
  C 360.60 501.23 355.98 509.30 353.85 512.79
  A 1.43 1.43 0.0 0 0 354.11 514.59
  C 356.57 516.84 360.14 517.19 362.07 518.47
  C 364.83 520.30 365.76 525.15 366.56 527.28
  A 3.43 3.37 -85.6 0 0 368.05 529.05
  L 372.42 531.57
  Z"
/>
<path fill="#110f0f" d="
  M 162.79 271.25
  L 162.28 268.70
  A 2.03 2.03 0.0 0 1 165.38 266.60
  Q 170.80 270.16 172.44 271.58
  Q 173.64 272.62 176.52 272.92
  A 1.03 0.96 -47.0 0 0 176.80 272.90
  L 188.26 270.57
  A 1.58 1.58 0.0 0 1 190.16 272.08
  L 190.16 272.22
  A 2.28 2.28 0.0 0 1 188.63 274.48
  Q 185.31 275.65 182.41 276.42
  Q 177.87 277.62 178.96 282.25
  Q 180.62 289.32 179.99 296.51
  A 4.03 4.03 0.0 0 1 176.78 300.10
  L 175.86 300.29
  A 2.04 2.04 0.0 0 1 173.48 297.78
  L 175.69 289.30
  A 2.68 2.67 41.1 0 0 175.57 287.56
  L 172.58 280.44
  A 1.41 1.39 4.7 0 0 172.05 279.82
  L 166.08 276.01
  A 7.38 7.38 0.0 0 1 162.79 271.25
  Z"
/>
<path fill="#ffffff" d="
  M 463.94 356.43
  A 1.85 1.85 0.0 0 1 460.77 355.86
  Q 458.62 349.71 459.11 344.15
  A 1.78 1.78 0.0 0 1 461.32 342.58
  Q 464.76 343.45 467.21 347.84
  A 4.63 4.62 -39.8 0 1 466.73 353.04
  L 463.94 356.43
  Z"
/>
<path fill="#110f0f" d="
  M 137.78 534.92
  C 136.59 534.57 135.96 533.56 135.23 532.84
  Q 127.38 525.15 132.27 514.42
  A 1.62 1.61 40.7 0 0 132.15 512.88
  C 129.97 509.55 126.15 502.19 128.54 498.29
  Q 131.43 493.58 135.59 489.71
  A 1.19 1.15 72.4 0 0 135.95 488.99
  L 136.24 486.28
  A 2.67 2.61 64.1 0 1 136.61 485.17
  Q 138.55 481.94 140.83 480.05
  A 0.90 0.90 0.0 0 0 140.87 478.70
  Q 136.51 474.57 135.98 469.24
  C 134.34 452.72 144.62 446.03 159.31 445.51
  A 1.68 1.68 0.0 0 1 161.05 447.19
  L 161.05 447.67
  A 1.31 1.30 87.1 0 1 159.88 448.97
  C 151.58 449.83 144.32 452.38 141.45 460.54
  C 138.75 468.19 141.46 474.16 149.17 476.85
  A 0.93 0.93 0.0 0 1 149.39 478.49
  Q 146.09 480.75 143.07 484.54
  Q 139.32 489.25 140.53 495.29
  A 1.27 1.26 -19.5 0 1 139.88 496.65
  Q 135.75 498.88 133.33 502.14
  A 2.90 2.89 -40.8 0 0 133.10 505.24
  Q 135.29 509.37 138.94 512.48
  A 1.88 1.88 0.0 0 1 139.11 515.17
  C 137.23 517.25 134.18 521.03 134.14 523.71
  C 134.06 528.19 136.99 531.55 138.22 534.44
  A 0.36 0.36 0.0 0 1 137.78 534.92
  Z"
/>
</svg>
